<?xml version="1.0" encoding="UTF-8" standalone="no"?>
<!DOCTYPE svg PUBLIC "-//W3C//DTD SVG 1.1//EN"
 "http://www.w3.org/Graphics/SVG/1.1/DTD/svg11.dtd">
<!-- Generated by graphviz version 9.0.0 (20230911.1827)
 -->
<!-- Title: 111 Pages: 1 -->
<svg width="150pt" height="188pt"
 viewBox="0.00 0.00 149.71 188.00" xmlns="http://www.w3.org/2000/svg" xmlns:xlink="http://www.w3.org/1999/xlink">
<g id="graph0" class="graph" transform="scale(1 1) rotate(0) translate(4 184)">
<title>111</title>
<polygon fill="white" stroke="none" points="-4,4 -4,-184 145.71,-184 145.71,4 -4,4"/>
<!-- 1 -->
<g id="node1" class="node">
<title>1</title>
<ellipse fill="none" stroke="black" cx="68.61" cy="-162" rx="27" ry="18"/>
<text text-anchor="middle" x="68.61" y="-156.57" font-family="Times New Roman,serif" font-size="14.00">1</text>
</g>
<!-- 22 -->
<g id="node2" class="node">
<title>22</title>
<ellipse fill="none" stroke="black" cx="32.61" cy="-90" rx="27" ry="18"/>
<text text-anchor="middle" x="32.61" y="-84.58" font-family="Times New Roman,serif" font-size="14.00">22</text>
</g>
<!-- 1&#45;&#45;22 -->
<g id="edge1" class="edge">
<title>1&#45;&#45;22</title>
<path fill="none" stroke="black" d="M60.26,-144.76C54.44,-133.46 46.72,-118.44 40.91,-107.15"/>
</g>
<!-- 333 -->
<g id="node3" class="node">
<title>333</title>
<ellipse fill="none" stroke="black" cx="106.61" cy="-90" rx="27" ry="18"/>
<text text-anchor="middle" x="106.61" y="-84.58" font-family="Times New Roman,serif" font-size="14.00">333</text>
</g>
<!-- 1&#45;&#45;333 -->
<g id="edge2" class="edge">
<title>1&#45;&#45;333</title>
<path fill="none" stroke="black" d="M77.42,-144.76C83.56,-133.46 91.71,-118.44 97.84,-107.15"/>
</g>
<!-- 4444 -->
<g id="node4" class="node">
<title>4444</title>
<ellipse fill="none" stroke="black" cx="28.61" cy="-18" rx="28.61" ry="18"/>
<text text-anchor="middle" x="28.61" y="-12.57" font-family="Times New Roman,serif" font-size="14.00">4444</text>
</g>
<!-- 22&#45;&#45;4444 -->
<g id="edge3" class="edge">
<title>22&#45;&#45;4444</title>
<path fill="none" stroke="black" d="M31.62,-71.7C31,-60.85 30.2,-46.92 29.59,-36.1"/>
</g>
<!-- 55555 -->
<g id="node5" class="node">
<title>55555</title>
<ellipse fill="none" stroke="black" cx="108.61" cy="-18" rx="33.1" ry="18"/>
<text text-anchor="middle" x="108.61" y="-12.57" font-family="Times New Roman,serif" font-size="14.00">55555</text>
</g>
<!-- 333&#45;&#45;55555 -->
<g id="edge4" class="edge">
<title>333&#45;&#45;55555</title>
<path fill="none" stroke="black" d="M107.1,-71.7C107.41,-60.85 107.81,-46.92 108.12,-36.1"/>
</g>
</g>
</svg>
