<?xml version="1.0" encoding="UTF-8" standalone="no"?>
<!DOCTYPE svg PUBLIC "-//W3C//DTD SVG 1.1//EN"
 "http://www.w3.org/Graphics/SVG/1.1/DTD/svg11.dtd">
<!-- Generated by graphviz version 9.0.0 (20230911.1827)
 -->
<!-- Title: 大众自动钳BOM Pages: 1 -->
<svg width="1489pt" height="188pt"
 viewBox="0.00 0.00 1488.56 188.00" xmlns="http://www.w3.org/2000/svg" xmlns:xlink="http://www.w3.org/1999/xlink">
<g id="graph0" class="graph" transform="scale(1 1) rotate(0) translate(4 184)">
<title>大众自动钳BOM</title>
<polygon fill="white" stroke="none" points="-4,4 -4,-184 1484.56,-184 1484.56,4 -4,4"/>
<!-- 大众自动钳 -->
<g id="node1" class="node">
<title>大众自动钳</title>
<ellipse fill="none" stroke="black" cx="456.57" cy="-162" rx="65.03" ry="18"/>
<text text-anchor="middle" x="456.57" y="-155.82" font-family="Times New Roman,serif" font-size="14.00">大众自动钳</text>
</g>
<!-- 壳体2 -->
<g id="node2" class="node">
<title>壳体2</title>
<ellipse fill="none" stroke="black" cx="166.57" cy="-90" rx="38.09" ry="18"/>
<text text-anchor="middle" x="166.57" y="-84.58" font-family="Times New Roman,serif" font-size="14.00">壳体2</text>
</g>
<!-- 大众自动钳&#45;&#45;壳体2 -->
<g id="edge1" class="edge">
<title>大众自动钳&#45;&#45;壳体2</title>
<path fill="none" stroke="black" d="M408.68,-149.44C349.8,-135.23 251.38,-111.47 200.04,-99.08"/>
</g>
<!-- 支架1 -->
<g id="node3" class="node">
<title>支架1</title>
<ellipse fill="none" stroke="black" cx="456.57" cy="-90" rx="38.09" ry="18"/>
<text text-anchor="middle" x="456.57" y="-84.58" font-family="Times New Roman,serif" font-size="14.00">支架1</text>
</g>
<!-- 大众自动钳&#45;&#45;支架1 -->
<g id="edge2" class="edge">
<title>大众自动钳&#45;&#45;支架1</title>
<path fill="none" stroke="black" d="M456.57,-143.7C456.57,-132.85 456.57,-118.92 456.57,-108.1"/>
</g>
<!-- 配件 -->
<g id="node4" class="node">
<title>配件</title>
<ellipse fill="none" stroke="black" cx="741.57" cy="-90" rx="32.12" ry="18"/>
<text text-anchor="middle" x="741.57" y="-83.83" font-family="Times New Roman,serif" font-size="14.00">配件</text>
</g>
<!-- 大众自动钳&#45;&#45;配件 -->
<g id="edge3" class="edge">
<title>大众自动钳&#45;&#45;配件</title>
<path fill="none" stroke="black" d="M503.95,-149.36C563.3,-134.78 663.18,-110.25 712.38,-98.17"/>
</g>
<!-- 左壳体1 -->
<g id="node5" class="node">
<title>左壳体1</title>
<ellipse fill="none" stroke="black" cx="49.57" cy="-18" rx="49.57" ry="18"/>
<text text-anchor="middle" x="49.57" y="-12.57" font-family="Times New Roman,serif" font-size="14.00">左壳体1</text>
</g>
<!-- 壳体2&#45;&#45;左壳体1 -->
<g id="edge4" class="edge">
<title>壳体2&#45;&#45;左壳体1</title>
<path fill="none" stroke="black" d="M143.73,-75.34C123.78,-63.4 94.88,-46.11 74.37,-33.84"/>
</g>
<!-- 右壳体1 -->
<g id="node6" class="node">
<title>右壳体1</title>
<ellipse fill="none" stroke="black" cx="166.57" cy="-18" rx="49.57" ry="18"/>
<text text-anchor="middle" x="166.57" y="-12.57" font-family="Times New Roman,serif" font-size="14.00">右壳体1</text>
</g>
<!-- 壳体2&#45;&#45;右壳体1 -->
<g id="edge5" class="edge">
<title>壳体2&#45;&#45;右壳体1</title>
<path fill="none" stroke="black" d="M166.57,-71.7C166.57,-60.85 166.57,-46.92 166.57,-36.1"/>
</g>
<!-- 密封圈2 -->
<g id="node7" class="node">
<title>密封圈2</title>
<ellipse fill="none" stroke="black" cx="283.57" cy="-18" rx="49.57" ry="18"/>
<text text-anchor="middle" x="283.57" y="-12.57" font-family="Times New Roman,serif" font-size="14.00">密封圈2</text>
</g>
<!-- 配件&#45;&#45;密封圈2 -->
<g id="edge6" class="edge">
<title>配件&#45;&#45;密封圈2</title>
<path fill="none" stroke="black" d="M709.74,-86.39C641.79,-80.47 477.65,-64.27 342.57,-36 335.26,-34.47 327.54,-32.51 320.18,-30.46"/>
</g>
<!-- 活塞1 -->
<g id="node8" class="node">
<title>活塞1</title>
<ellipse fill="none" stroke="black" cx="389.57" cy="-18" rx="38.09" ry="18"/>
<text text-anchor="middle" x="389.57" y="-12.57" font-family="Times New Roman,serif" font-size="14.00">活塞1</text>
</g>
<!-- 配件&#45;&#45;活塞1 -->
<g id="edge7" class="edge">
<title>配件&#45;&#45;活塞1</title>
<path fill="none" stroke="black" d="M710,-85.37C654.2,-78.53 534.74,-62.07 436.57,-36 430.53,-34.4 424.17,-32.35 418.15,-30.24"/>
</g>
<!-- 塑料套1 -->
<g id="node9" class="node">
<title>塑料套1</title>
<ellipse fill="none" stroke="black" cx="495.57" cy="-18" rx="49.57" ry="18"/>
<text text-anchor="middle" x="495.57" y="-12.57" font-family="Times New Roman,serif" font-size="14.00">塑料套1</text>
</g>
<!-- 配件&#45;&#45;塑料套1 -->
<g id="edge8" class="edge">
<title>配件&#45;&#45;塑料套1</title>
<path fill="none" stroke="black" d="M713.19,-81.1C676.36,-70.82 610.11,-52.26 553.57,-36 547.01,-34.12 540.05,-32.09 533.3,-30.12"/>
</g>
<!-- 橡胶套1 -->
<g id="node10" class="node">
<title>橡胶套1</title>
<ellipse fill="none" stroke="black" cx="612.57" cy="-18" rx="49.57" ry="18"/>
<text text-anchor="middle" x="612.57" y="-12.57" font-family="Times New Roman,serif" font-size="14.00">橡胶套1</text>
</g>
<!-- 配件&#45;&#45;橡胶套1 -->
<g id="edge9" class="edge">
<title>配件&#45;&#45;橡胶套1</title>
<path fill="none" stroke="black" d="M719.1,-76.81C696.86,-64.74 662.83,-46.27 639.24,-33.47"/>
</g>
<!-- 放气螺栓1 -->
<g id="node11" class="node">
<title>放气螺栓1</title>
<ellipse fill="none" stroke="black" cx="741.57" cy="-18" rx="61.04" ry="18"/>
<text text-anchor="middle" x="741.57" y="-12.57" font-family="Times New Roman,serif" font-size="14.00">放气螺栓1</text>
</g>
<!-- 配件&#45;&#45;放气螺栓1 -->
<g id="edge10" class="edge">
<title>配件&#45;&#45;放气螺栓1</title>
<path fill="none" stroke="black" d="M741.57,-71.7C741.57,-60.85 741.57,-46.92 741.57,-36.1"/>
</g>
<!-- 防尘帽1 -->
<g id="node12" class="node">
<title>防尘帽1</title>
<ellipse fill="none" stroke="black" cx="870.57" cy="-18" rx="49.57" ry="18"/>
<text text-anchor="middle" x="870.57" y="-12.57" font-family="Times New Roman,serif" font-size="14.00">防尘帽1</text>
</g>
<!-- 配件&#45;&#45;防尘帽1 -->
<g id="edge11" class="edge">
<title>配件&#45;&#45;防尘帽1</title>
<path fill="none" stroke="black" d="M764.04,-76.81C786.27,-64.74 820.3,-46.27 843.9,-33.47"/>
</g>
<!-- 内六角螺栓1 -->
<g id="node13" class="node">
<title>内六角螺栓1</title>
<ellipse fill="none" stroke="black" cx="1010.57" cy="-18" rx="72.52" ry="18"/>
<text text-anchor="middle" x="1010.57" y="-12.57" font-family="Times New Roman,serif" font-size="14.00">内六角螺栓1</text>
</g>
<!-- 配件&#45;&#45;内六角螺栓1 -->
<g id="edge12" class="edge">
<title>配件&#45;&#45;内六角螺栓1</title>
<path fill="none" stroke="black" d="M770.35,-81.51C816.17,-69.59 906.18,-46.16 962.07,-31.62"/>
</g>
<!-- 摩擦片2 -->
<g id="node14" class="node">
<title>摩擦片2</title>
<ellipse fill="none" stroke="black" cx="1150.57" cy="-18" rx="49.57" ry="18"/>
<text text-anchor="middle" x="1150.57" y="-12.57" font-family="Times New Roman,serif" font-size="14.00">摩擦片2</text>
</g>
<!-- 配件&#45;&#45;摩擦片2 -->
<g id="edge13" class="edge">
<title>配件&#45;&#45;摩擦片2</title>
<path fill="none" stroke="black" d="M772.82,-85.72C834.45,-78.93 975.82,-61.8 1092.57,-36 1099.53,-34.46 1106.89,-32.54 1113.94,-30.55"/>
</g>
<!-- 隔垫1 -->
<g id="node15" class="node">
<title>隔垫1</title>
<ellipse fill="none" stroke="black" cx="1256.57" cy="-18" rx="38.09" ry="18"/>
<text text-anchor="middle" x="1256.57" y="-12.57" font-family="Times New Roman,serif" font-size="14.00">隔垫1</text>
</g>
<!-- 配件&#45;&#45;隔垫1 -->
<g id="edge14" class="edge">
<title>配件&#45;&#45;隔垫1</title>
<path fill="none" stroke="black" d="M773.78,-87.94C850.33,-84.88 1048.74,-73.64 1209.57,-36 1215.82,-34.54 1222.38,-32.5 1228.56,-30.34"/>
</g>
<!-- 开口导向套管2 -->
<g id="node16" class="node">
<title>开口导向套管2</title>
<ellipse fill="none" stroke="black" cx="1396.57" cy="-18" rx="84" ry="18"/>
<text text-anchor="middle" x="1396.57" y="-12.57" font-family="Times New Roman,serif" font-size="14.00">开口导向套管2</text>
</g>
<!-- 配件&#45;&#45;开口导向套管2 -->
<g id="edge15" class="edge">
<title>配件&#45;&#45;开口导向套管2</title>
<path fill="none" stroke="black" d="M773.68,-86.95C859.78,-81.25 1102.86,-63.76 1303.57,-36 1314.14,-34.54 1325.33,-32.72 1336.16,-30.83"/>
</g>
</g>
</svg>
