<?xml version="1.0" encoding="UTF-8" standalone="no"?>
<!DOCTYPE svg PUBLIC "-//W3C//DTD SVG 1.1//EN"
 "http://www.w3.org/Graphics/SVG/1.1/DTD/svg11.dtd">
<!-- Generated by graphviz version 2.50.0 (0)
 -->
<!-- Title: 大众自动钳BOM Pages: 1 -->
<svg width="1464pt" height="188pt"
 viewBox="0.00 0.00 1464.29 188.00" xmlns="http://www.w3.org/2000/svg" xmlns:xlink="http://www.w3.org/1999/xlink">
<g id="graph0" class="graph" transform="scale(1 1) rotate(0) translate(4 184)">
<title>大众自动钳BOM</title>
<polygon fill="white" stroke="transparent" points="-4,4 -4,-184 1460.29,-184 1460.29,4 -4,4"/>
<!-- 大众自动钳 -->
<g id="node1" class="node">
<title>大众自动钳</title>
<ellipse fill="none" stroke="black" cx="447.75" cy="-162" rx="66.89" ry="18"/>
<text text-anchor="middle" x="447.75" y="-158.3" font-family="Times New Roman,serif" font-size="14.00">大众自动钳</text>
</g>
<!-- 壳体2 -->
<g id="node2" class="node">
<title>壳体2</title>
<ellipse fill="none" stroke="black" cx="163.75" cy="-90" rx="37.89" ry="18"/>
<text text-anchor="middle" x="163.75" y="-86.3" font-family="Times New Roman,serif" font-size="14.00">壳体2</text>
</g>
<!-- 大众自动钳&#45;&#45;壳体2 -->
<g id="edge1" class="edge">
<title>大众自动钳&#45;&#45;壳体2</title>
<path fill="none" stroke="black" d="M400.21,-149.28C342.42,-135.04 246.42,-111.38 196.37,-99.04"/>
</g>
<!-- 支架1 -->
<g id="node3" class="node">
<title>支架1</title>
<ellipse fill="none" stroke="black" cx="447.75" cy="-90" rx="37.89" ry="18"/>
<text text-anchor="middle" x="447.75" y="-86.3" font-family="Times New Roman,serif" font-size="14.00">支架1</text>
</g>
<!-- 大众自动钳&#45;&#45;支架1 -->
<g id="edge2" class="edge">
<title>大众自动钳&#45;&#45;支架1</title>
<path fill="none" stroke="black" d="M447.75,-143.7C447.75,-132.85 447.75,-118.92 447.75,-108.1"/>
</g>
<!-- 配件 -->
<g id="node4" class="node">
<title>配件</title>
<ellipse fill="none" stroke="black" cx="728.75" cy="-90" rx="33.29" ry="18"/>
<text text-anchor="middle" x="728.75" y="-86.3" font-family="Times New Roman,serif" font-size="14.00">配件</text>
</g>
<!-- 大众自动钳&#45;&#45;配件 -->
<g id="edge3" class="edge">
<title>大众自动钳&#45;&#45;配件</title>
<path fill="none" stroke="black" d="M495.1,-149.2C553.44,-134.67 650.78,-110.42 699.33,-98.33"/>
</g>
<!-- 左壳体1 -->
<g id="node5" class="node">
<title>左壳体1</title>
<ellipse fill="none" stroke="black" cx="48.75" cy="-18" rx="48.99" ry="18"/>
<text text-anchor="middle" x="48.75" y="-14.3" font-family="Times New Roman,serif" font-size="14.00">左壳体1</text>
</g>
<!-- 壳体2&#45;&#45;左壳体1 -->
<g id="edge4" class="edge">
<title>壳体2&#45;&#45;左壳体1</title>
<path fill="none" stroke="black" d="M141.3,-75.34C121.69,-63.4 93.28,-46.11 73.12,-33.84"/>
</g>
<!-- 右壳体1 -->
<g id="node6" class="node">
<title>右壳体1</title>
<ellipse fill="none" stroke="black" cx="163.75" cy="-18" rx="48.99" ry="18"/>
<text text-anchor="middle" x="163.75" y="-14.3" font-family="Times New Roman,serif" font-size="14.00">右壳体1</text>
</g>
<!-- 壳体2&#45;&#45;右壳体1 -->
<g id="edge5" class="edge">
<title>壳体2&#45;&#45;右壳体1</title>
<path fill="none" stroke="black" d="M163.75,-71.7C163.75,-60.85 163.75,-46.92 163.75,-36.1"/>
</g>
<!-- 密封圈2 -->
<g id="node7" class="node">
<title>密封圈2</title>
<ellipse fill="none" stroke="black" cx="278.75" cy="-18" rx="48.99" ry="18"/>
<text text-anchor="middle" x="278.75" y="-14.3" font-family="Times New Roman,serif" font-size="14.00">密封圈2</text>
</g>
<!-- 配件&#45;&#45;密封圈2 -->
<g id="edge6" class="edge">
<title>配件&#45;&#45;密封圈2</title>
<path fill="none" stroke="black" d="M696.1,-86.33C628.36,-80.41 467.83,-64.42 335.75,-36 328.68,-34.48 321.21,-32.52 314.1,-30.47"/>
</g>
<!-- 活塞1 -->
<g id="node8" class="node">
<title>活塞1</title>
<ellipse fill="none" stroke="black" cx="382.75" cy="-18" rx="37.89" ry="18"/>
<text text-anchor="middle" x="382.75" y="-14.3" font-family="Times New Roman,serif" font-size="14.00">活塞1</text>
</g>
<!-- 配件&#45;&#45;活塞1 -->
<g id="edge7" class="edge">
<title>配件&#45;&#45;活塞1</title>
<path fill="none" stroke="black" d="M696.36,-85.21C640.9,-78.3 524.47,-61.92 428.75,-36 422.83,-34.4 416.6,-32.35 410.71,-30.24"/>
</g>
<!-- 塑料套1 -->
<g id="node9" class="node">
<title>塑料套1</title>
<ellipse fill="none" stroke="black" cx="486.75" cy="-18" rx="48.99" ry="18"/>
<text text-anchor="middle" x="486.75" y="-14.3" font-family="Times New Roman,serif" font-size="14.00">塑料套1</text>
</g>
<!-- 配件&#45;&#45;塑料套1 -->
<g id="edge8" class="edge">
<title>配件&#45;&#45;塑料套1</title>
<path fill="none" stroke="black" d="M699.88,-80.83C663.45,-70.51 598.9,-52.13 543.75,-36 537.2,-34.09 530.25,-32.03 523.52,-30.03"/>
</g>
<!-- 橡胶套1 -->
<g id="node10" class="node">
<title>橡胶套1</title>
<ellipse fill="none" stroke="black" cx="601.75" cy="-18" rx="48.99" ry="18"/>
<text text-anchor="middle" x="601.75" y="-14.3" font-family="Times New Roman,serif" font-size="14.00">橡胶套1</text>
</g>
<!-- 配件&#45;&#45;橡胶套1 -->
<g id="edge9" class="edge">
<title>配件&#45;&#45;橡胶套1</title>
<path fill="none" stroke="black" d="M706.33,-76.65C684.4,-64.56 651.01,-46.15 627.88,-33.4"/>
</g>
<!-- 放气螺栓1 -->
<g id="node11" class="node">
<title>放气螺栓1</title>
<ellipse fill="none" stroke="black" cx="728.75" cy="-18" rx="59.59" ry="18"/>
<text text-anchor="middle" x="728.75" y="-14.3" font-family="Times New Roman,serif" font-size="14.00">放气螺栓1</text>
</g>
<!-- 配件&#45;&#45;放气螺栓1 -->
<g id="edge10" class="edge">
<title>配件&#45;&#45;放气螺栓1</title>
<path fill="none" stroke="black" d="M728.75,-71.7C728.75,-60.85 728.75,-46.92 728.75,-36.1"/>
</g>
<!-- 防尘帽1 -->
<g id="node12" class="node">
<title>防尘帽1</title>
<ellipse fill="none" stroke="black" cx="855.75" cy="-18" rx="48.99" ry="18"/>
<text text-anchor="middle" x="855.75" y="-14.3" font-family="Times New Roman,serif" font-size="14.00">防尘帽1</text>
</g>
<!-- 配件&#45;&#45;防尘帽1 -->
<g id="edge11" class="edge">
<title>配件&#45;&#45;防尘帽1</title>
<path fill="none" stroke="black" d="M751.16,-76.65C773.09,-64.56 806.48,-46.15 829.61,-33.4"/>
</g>
<!-- 内六角螺栓1 -->
<g id="node13" class="node">
<title>内六角螺栓1</title>
<ellipse fill="none" stroke="black" cx="993.75" cy="-18" rx="71.49" ry="18"/>
<text text-anchor="middle" x="993.75" y="-14.3" font-family="Times New Roman,serif" font-size="14.00">内六角螺栓1</text>
</g>
<!-- 配件&#45;&#45;内六角螺栓1 -->
<g id="edge12" class="edge">
<title>配件&#45;&#45;内六角螺栓1</title>
<path fill="none" stroke="black" d="M757.86,-81.31C803.31,-69.3 891.55,-45.99 946.28,-31.54"/>
</g>
<!-- 摩擦片2 -->
<g id="node14" class="node">
<title>摩擦片2</title>
<ellipse fill="none" stroke="black" cx="1131.75" cy="-18" rx="48.99" ry="18"/>
<text text-anchor="middle" x="1131.75" y="-14.3" font-family="Times New Roman,serif" font-size="14.00">摩擦片2</text>
</g>
<!-- 配件&#45;&#45;摩擦片2 -->
<g id="edge13" class="edge">
<title>配件&#45;&#45;摩擦片2</title>
<path fill="none" stroke="black" d="M760.88,-85.51C822.18,-78.53 959.87,-61.32 1073.75,-36 1081.02,-34.38 1088.72,-32.36 1096.05,-30.27"/>
</g>
<!-- 隔垫1 -->
<g id="node15" class="node">
<title>隔垫1</title>
<ellipse fill="none" stroke="black" cx="1235.75" cy="-18" rx="37.89" ry="18"/>
<text text-anchor="middle" x="1235.75" y="-14.3" font-family="Times New Roman,serif" font-size="14.00">隔垫1</text>
</g>
<!-- 配件&#45;&#45;隔垫1 -->
<g id="edge14" class="edge">
<title>配件&#45;&#45;隔垫1</title>
<path fill="none" stroke="black" d="M761.91,-87.9C838.36,-84.79 1032.43,-73.54 1189.75,-36 1195.71,-34.58 1201.96,-32.61 1207.86,-30.52"/>
</g>
<!-- 开口导向套管2 -->
<g id="node16" class="node">
<title>开口导向套管2</title>
<ellipse fill="none" stroke="black" cx="1373.75" cy="-18" rx="82.59" ry="18"/>
<text text-anchor="middle" x="1373.75" y="-14.3" font-family="Times New Roman,serif" font-size="14.00">开口导向套管2</text>
</g>
<!-- 配件&#45;&#45;开口导向套管2 -->
<g id="edge15" class="edge">
<title>配件&#45;&#45;开口导向套管2</title>
<path fill="none" stroke="black" d="M761.65,-86.88C847.61,-81.13 1085.9,-63.75 1282.75,-36 1293.25,-34.52 1304.39,-32.67 1315.13,-30.75"/>
</g>
</g>
</svg>
