<?xml version="1.0" encoding="UTF-8" standalone="no"?>
<!DOCTYPE svg PUBLIC "-//W3C//DTD SVG 1.1//EN"
 "http://www.w3.org/Graphics/SVG/1.1/DTD/svg11.dtd">
<!-- Generated by graphviz version 9.0.0 (20230911.1827)
 -->
<!-- Title: 车间&#45;工作中心图 Pages: 1 -->
<svg width="1550pt" height="116pt"
 viewBox="0.00 0.00 1549.98 116.00" xmlns="http://www.w3.org/2000/svg" xmlns:xlink="http://www.w3.org/1999/xlink">
<g id="graph0" class="graph" transform="scale(1 1) rotate(0) translate(4 112)">
<title>车间&#45;工作中心图</title>
<polygon fill="white" stroke="none" points="-4,4 -4,-112 1545.98,-112 1545.98,4 -4,4"/>
<!-- 车间1 -->
<g id="node1" class="node">
<title>车间1</title>
<ellipse fill="none" stroke="black" cx="186.49" cy="-90" rx="38.09" ry="18"/>
<text text-anchor="middle" x="186.49" y="-84.58" font-family="Times New Roman,serif" font-size="14.00">车间1</text>
</g>
<!-- 车间1工作中心1 -->
<g id="node2" class="node">
<title>车间1工作中心1</title>
<ellipse fill="none" stroke="black" cx="88.49" cy="-18" rx="88.49" ry="18"/>
<text text-anchor="middle" x="88.49" y="-12.57" font-family="Times New Roman,serif" font-size="14.00">车间1工作中心1</text>
</g>
<!-- 车间1&#45;&#45;车间1工作中心1 -->
<g id="edge1" class="edge">
<title>车间1&#45;&#45;车间1工作中心1</title>
<path fill="none" stroke="black" d="M166.18,-74.5C150.37,-63.2 128.41,-47.51 111.87,-35.7"/>
</g>
<!-- 车间1工作中心2 -->
<g id="node9" class="node">
<title>车间1工作中心2</title>
<ellipse fill="none" stroke="black" cx="283.49" cy="-18" rx="88.49" ry="18"/>
<text text-anchor="middle" x="283.49" y="-12.57" font-family="Times New Roman,serif" font-size="14.00">车间1工作中心2</text>
</g>
<!-- 车间1&#45;&#45;车间1工作中心2 -->
<g id="edge5" class="edge">
<title>车间1&#45;&#45;车间1工作中心2</title>
<path fill="none" stroke="black" d="M206.59,-74.5C222.24,-63.2 243.98,-47.51 260.35,-35.7"/>
</g>
<!-- 车间2 -->
<g id="node3" class="node">
<title>车间2</title>
<ellipse fill="none" stroke="black" cx="575.49" cy="-90" rx="38.09" ry="18"/>
<text text-anchor="middle" x="575.49" y="-84.58" font-family="Times New Roman,serif" font-size="14.00">车间2</text>
</g>
<!-- 车间2工作中心2 -->
<g id="node4" class="node">
<title>车间2工作中心2</title>
<ellipse fill="none" stroke="black" cx="478.49" cy="-18" rx="88.49" ry="18"/>
<text text-anchor="middle" x="478.49" y="-12.57" font-family="Times New Roman,serif" font-size="14.00">车间2工作中心2</text>
</g>
<!-- 车间2&#45;&#45;车间2工作中心2 -->
<g id="edge2" class="edge">
<title>车间2&#45;&#45;车间2工作中心2</title>
<path fill="none" stroke="black" d="M555.39,-74.5C539.74,-63.2 518,-47.51 501.63,-35.7"/>
</g>
<!-- 车间2工作中心1 -->
<g id="node10" class="node">
<title>车间2工作中心1</title>
<ellipse fill="none" stroke="black" cx="673.49" cy="-18" rx="88.49" ry="18"/>
<text text-anchor="middle" x="673.49" y="-12.57" font-family="Times New Roman,serif" font-size="14.00">车间2工作中心1</text>
</g>
<!-- 车间2&#45;&#45;车间2工作中心1 -->
<g id="edge6" class="edge">
<title>车间2&#45;&#45;车间2工作中心1</title>
<path fill="none" stroke="black" d="M595.79,-74.5C611.6,-63.2 633.57,-47.51 650.11,-35.7"/>
</g>
<!-- 车间3 -->
<g id="node5" class="node">
<title>车间3</title>
<ellipse fill="none" stroke="black" cx="965.49" cy="-90" rx="38.09" ry="18"/>
<text text-anchor="middle" x="965.49" y="-84.58" font-family="Times New Roman,serif" font-size="14.00">车间3</text>
</g>
<!-- 车间3工作中心3 -->
<g id="node6" class="node">
<title>车间3工作中心3</title>
<ellipse fill="none" stroke="black" cx="868.49" cy="-18" rx="88.49" ry="18"/>
<text text-anchor="middle" x="868.49" y="-12.57" font-family="Times New Roman,serif" font-size="14.00">车间3工作中心3</text>
</g>
<!-- 车间3&#45;&#45;车间3工作中心3 -->
<g id="edge3" class="edge">
<title>车间3&#45;&#45;车间3工作中心3</title>
<path fill="none" stroke="black" d="M945.39,-74.5C929.74,-63.2 908,-47.51 891.63,-35.7"/>
</g>
<!-- 车间3工作中心1 -->
<g id="node11" class="node">
<title>车间3工作中心1</title>
<ellipse fill="none" stroke="black" cx="1063.49" cy="-18" rx="88.49" ry="18"/>
<text text-anchor="middle" x="1063.49" y="-12.57" font-family="Times New Roman,serif" font-size="14.00">车间3工作中心1</text>
</g>
<!-- 车间3&#45;&#45;车间3工作中心1 -->
<g id="edge7" class="edge">
<title>车间3&#45;&#45;车间3工作中心1</title>
<path fill="none" stroke="black" d="M985.79,-74.5C1001.6,-63.2 1023.57,-47.51 1040.11,-35.7"/>
</g>
<!-- 车间4 -->
<g id="node7" class="node">
<title>车间4</title>
<ellipse fill="none" stroke="black" cx="1355.49" cy="-90" rx="38.09" ry="18"/>
<text text-anchor="middle" x="1355.49" y="-84.58" font-family="Times New Roman,serif" font-size="14.00">车间4</text>
</g>
<!-- 车间4工作中心4 -->
<g id="node8" class="node">
<title>车间4工作中心4</title>
<ellipse fill="none" stroke="black" cx="1258.49" cy="-18" rx="88.49" ry="18"/>
<text text-anchor="middle" x="1258.49" y="-12.57" font-family="Times New Roman,serif" font-size="14.00">车间4工作中心4</text>
</g>
<!-- 车间4&#45;&#45;车间4工作中心4 -->
<g id="edge4" class="edge">
<title>车间4&#45;&#45;车间4工作中心4</title>
<path fill="none" stroke="black" d="M1335.39,-74.5C1319.74,-63.2 1298,-47.51 1281.63,-35.7"/>
</g>
<!-- 车间4工作中心1 -->
<g id="node12" class="node">
<title>车间4工作中心1</title>
<ellipse fill="none" stroke="black" cx="1453.49" cy="-18" rx="88.49" ry="18"/>
<text text-anchor="middle" x="1453.49" y="-12.57" font-family="Times New Roman,serif" font-size="14.00">车间4工作中心1</text>
</g>
<!-- 车间4&#45;&#45;车间4工作中心1 -->
<g id="edge8" class="edge">
<title>车间4&#45;&#45;车间4工作中心1</title>
<path fill="none" stroke="black" d="M1375.79,-74.5C1391.6,-63.2 1413.57,-47.51 1430.11,-35.7"/>
</g>
</g>
</svg>
