<?xml version="1.0" encoding="UTF-8" standalone="no"?>
<!DOCTYPE svg PUBLIC "-//W3C//DTD SVG 1.1//EN"
 "http://www.w3.org/Graphics/SVG/1.1/DTD/svg11.dtd">
<!-- Generated by graphviz version 2.50.0 (0)
 -->
<!-- Title: 车间&#45;工作中心图 Pages: 1 -->
<svg width="542pt" height="116pt"
 viewBox="0.00 0.00 541.59 116.00" xmlns="http://www.w3.org/2000/svg" xmlns:xlink="http://www.w3.org/1999/xlink">
<g id="graph0" class="graph" transform="scale(1 1) rotate(0) translate(4 112)">
<title>车间&#45;工作中心图</title>
<polygon fill="white" stroke="transparent" points="-4,4 -4,-112 537.59,-112 537.59,4 -4,4"/>
<!-- 工作中心1 -->
<g id="node1" class="node">
<title>工作中心1</title>
<ellipse fill="none" stroke="black" cx="59.79" cy="-18" rx="59.59" ry="18"/>
<text text-anchor="middle" x="59.79" y="-14.3" font-family="Times New Roman,serif" font-size="14.00">工作中心1</text>
</g>
<!-- 车间1 -->
<g id="node2" class="node">
<title>车间1</title>
<ellipse fill="none" stroke="black" cx="59.79" cy="-90" rx="37.89" ry="18"/>
<text text-anchor="middle" x="59.79" y="-86.3" font-family="Times New Roman,serif" font-size="14.00">车间1</text>
</g>
<!-- 车间1&#45;&#45;工作中心1 -->
<g id="edge1" class="edge">
<title>车间1&#45;&#45;工作中心1</title>
<path fill="none" stroke="black" d="M59.79,-71.7C59.79,-60.85 59.79,-46.92 59.79,-36.1"/>
</g>
<!-- 工作中心2 -->
<g id="node3" class="node">
<title>工作中心2</title>
<ellipse fill="none" stroke="black" cx="197.79" cy="-18" rx="59.59" ry="18"/>
<text text-anchor="middle" x="197.79" y="-14.3" font-family="Times New Roman,serif" font-size="14.00">工作中心2</text>
</g>
<!-- 车间2 -->
<g id="node4" class="node">
<title>车间2</title>
<ellipse fill="none" stroke="black" cx="197.79" cy="-90" rx="37.89" ry="18"/>
<text text-anchor="middle" x="197.79" y="-86.3" font-family="Times New Roman,serif" font-size="14.00">车间2</text>
</g>
<!-- 车间2&#45;&#45;工作中心2 -->
<g id="edge2" class="edge">
<title>车间2&#45;&#45;工作中心2</title>
<path fill="none" stroke="black" d="M197.79,-71.7C197.79,-60.85 197.79,-46.92 197.79,-36.1"/>
</g>
<!-- 工作中心3 -->
<g id="node5" class="node">
<title>工作中心3</title>
<ellipse fill="none" stroke="black" cx="335.79" cy="-18" rx="59.59" ry="18"/>
<text text-anchor="middle" x="335.79" y="-14.3" font-family="Times New Roman,serif" font-size="14.00">工作中心3</text>
</g>
<!-- 车间3 -->
<g id="node6" class="node">
<title>车间3</title>
<ellipse fill="none" stroke="black" cx="335.79" cy="-90" rx="37.89" ry="18"/>
<text text-anchor="middle" x="335.79" y="-86.3" font-family="Times New Roman,serif" font-size="14.00">车间3</text>
</g>
<!-- 车间3&#45;&#45;工作中心3 -->
<g id="edge3" class="edge">
<title>车间3&#45;&#45;工作中心3</title>
<path fill="none" stroke="black" d="M335.79,-71.7C335.79,-60.85 335.79,-46.92 335.79,-36.1"/>
</g>
<!-- 工作中心4 -->
<g id="node7" class="node">
<title>工作中心4</title>
<ellipse fill="none" stroke="black" cx="473.79" cy="-18" rx="59.59" ry="18"/>
<text text-anchor="middle" x="473.79" y="-14.3" font-family="Times New Roman,serif" font-size="14.00">工作中心4</text>
</g>
<!-- 车间4 -->
<g id="node8" class="node">
<title>车间4</title>
<ellipse fill="none" stroke="black" cx="473.79" cy="-90" rx="37.89" ry="18"/>
<text text-anchor="middle" x="473.79" y="-86.3" font-family="Times New Roman,serif" font-size="14.00">车间4</text>
</g>
<!-- 车间4&#45;&#45;工作中心4 -->
<g id="edge4" class="edge">
<title>车间4&#45;&#45;工作中心4</title>
<path fill="none" stroke="black" d="M473.79,-71.7C473.79,-60.85 473.79,-46.92 473.79,-36.1"/>
</g>
</g>
</svg>
