<?xml version="1.0" encoding="UTF-8" standalone="no"?>
<!DOCTYPE svg PUBLIC "-//W3C//DTD SVG 1.1//EN"
 "http://www.w3.org/Graphics/SVG/1.1/DTD/svg11.dtd">
<!-- Generated by graphviz version 9.0.0 (20230911.1827)
 -->
<!-- Title: 车间&#45;工作中心图 Pages: 1 -->
<svg width="550pt" height="116pt"
 viewBox="0.00 0.00 550.09 116.00" xmlns="http://www.w3.org/2000/svg" xmlns:xlink="http://www.w3.org/1999/xlink">
<g id="graph0" class="graph" transform="scale(1 1) rotate(0) translate(4 112)">
<title>车间&#45;工作中心图</title>
<polygon fill="white" stroke="none" points="-4,4 -4,-112 546.09,-112 546.09,4 -4,4"/>
<!-- 工作中心1 -->
<g id="node1" class="node">
<title>工作中心1</title>
<ellipse fill="none" stroke="black" cx="61.04" cy="-18" rx="61.04" ry="18"/>
<text text-anchor="middle" x="61.04" y="-12.57" font-family="Times New Roman,serif" font-size="14.00">工作中心1</text>
</g>
<!-- 车间1 -->
<g id="node2" class="node">
<title>车间1</title>
<ellipse fill="none" stroke="black" cx="61.04" cy="-90" rx="38.09" ry="18"/>
<text text-anchor="middle" x="61.04" y="-84.58" font-family="Times New Roman,serif" font-size="14.00">车间1</text>
</g>
<!-- 车间1&#45;&#45;工作中心1 -->
<g id="edge1" class="edge">
<title>车间1&#45;&#45;工作中心1</title>
<path fill="none" stroke="black" d="M61.04,-71.7C61.04,-60.85 61.04,-46.92 61.04,-36.1"/>
</g>
<!-- 工作中心2 -->
<g id="node3" class="node">
<title>工作中心2</title>
<ellipse fill="none" stroke="black" cx="201.04" cy="-18" rx="61.04" ry="18"/>
<text text-anchor="middle" x="201.04" y="-12.57" font-family="Times New Roman,serif" font-size="14.00">工作中心2</text>
</g>
<!-- 车间2 -->
<g id="node4" class="node">
<title>车间2</title>
<ellipse fill="none" stroke="black" cx="201.04" cy="-90" rx="38.09" ry="18"/>
<text text-anchor="middle" x="201.04" y="-84.58" font-family="Times New Roman,serif" font-size="14.00">车间2</text>
</g>
<!-- 车间2&#45;&#45;工作中心2 -->
<g id="edge2" class="edge">
<title>车间2&#45;&#45;工作中心2</title>
<path fill="none" stroke="black" d="M201.04,-71.7C201.04,-60.85 201.04,-46.92 201.04,-36.1"/>
</g>
<!-- 工作中心3 -->
<g id="node5" class="node">
<title>工作中心3</title>
<ellipse fill="none" stroke="black" cx="341.04" cy="-18" rx="61.04" ry="18"/>
<text text-anchor="middle" x="341.04" y="-12.57" font-family="Times New Roman,serif" font-size="14.00">工作中心3</text>
</g>
<!-- 车间3 -->
<g id="node6" class="node">
<title>车间3</title>
<ellipse fill="none" stroke="black" cx="341.04" cy="-90" rx="38.09" ry="18"/>
<text text-anchor="middle" x="341.04" y="-84.58" font-family="Times New Roman,serif" font-size="14.00">车间3</text>
</g>
<!-- 车间3&#45;&#45;工作中心3 -->
<g id="edge3" class="edge">
<title>车间3&#45;&#45;工作中心3</title>
<path fill="none" stroke="black" d="M341.04,-71.7C341.04,-60.85 341.04,-46.92 341.04,-36.1"/>
</g>
<!-- 工作中心4 -->
<g id="node7" class="node">
<title>工作中心4</title>
<ellipse fill="none" stroke="black" cx="481.04" cy="-18" rx="61.04" ry="18"/>
<text text-anchor="middle" x="481.04" y="-12.57" font-family="Times New Roman,serif" font-size="14.00">工作中心4</text>
</g>
<!-- 车间4 -->
<g id="node8" class="node">
<title>车间4</title>
<ellipse fill="none" stroke="black" cx="481.04" cy="-90" rx="38.09" ry="18"/>
<text text-anchor="middle" x="481.04" y="-84.58" font-family="Times New Roman,serif" font-size="14.00">车间4</text>
</g>
<!-- 车间4&#45;&#45;工作中心4 -->
<g id="edge4" class="edge">
<title>车间4&#45;&#45;工作中心4</title>
<path fill="none" stroke="black" d="M481.04,-71.7C481.04,-60.85 481.04,-46.92 481.04,-36.1"/>
</g>
</g>
</svg>
