<?xml version="1.0" encoding="UTF-8" standalone="no"?>
<!DOCTYPE svg PUBLIC "-//W3C//DTD SVG 1.1//EN"
 "http://www.w3.org/Graphics/SVG/1.1/DTD/svg11.dtd">
<!-- Generated by graphviz version 9.0.0 (20230911.1827)
 -->
<!-- Title: 车间&#45;工作中心图 Pages: 1 -->
<svg width="770pt" height="116pt"
 viewBox="0.00 0.00 769.98 116.00" xmlns="http://www.w3.org/2000/svg" xmlns:xlink="http://www.w3.org/1999/xlink">
<g id="graph0" class="graph" transform="scale(1 1) rotate(0) translate(4 112)">
<title>车间&#45;工作中心图</title>
<polygon fill="white" stroke="none" points="-4,4 -4,-112 765.98,-112 765.98,4 -4,4"/>
<!-- 车间1 -->
<g id="node1" class="node">
<title>车间1</title>
<ellipse fill="none" stroke="black" cx="283.49" cy="-90" rx="38.09" ry="18"/>
<text text-anchor="middle" x="283.49" y="-84.58" font-family="Times New Roman,serif" font-size="14.00">车间1</text>
</g>
<!-- 车间1工作中心1 -->
<g id="node2" class="node">
<title>车间1工作中心1</title>
<ellipse fill="none" stroke="black" cx="88.49" cy="-18" rx="88.49" ry="18"/>
<text text-anchor="middle" x="88.49" y="-12.57" font-family="Times New Roman,serif" font-size="14.00">车间1工作中心1</text>
</g>
<!-- 车间1&#45;&#45;车间1工作中心1 -->
<g id="edge1" class="edge">
<title>车间1&#45;&#45;车间1工作中心1</title>
<path fill="none" stroke="black" d="M253.87,-78.37C221.06,-66.59 167.87,-47.5 130.7,-34.15"/>
</g>
<!-- 车间1工作中心2 -->
<g id="node3" class="node">
<title>车间1工作中心2</title>
<ellipse fill="none" stroke="black" cx="283.49" cy="-18" rx="88.49" ry="18"/>
<text text-anchor="middle" x="283.49" y="-12.57" font-family="Times New Roman,serif" font-size="14.00">车间1工作中心2</text>
</g>
<!-- 车间1&#45;&#45;车间1工作中心2 -->
<g id="edge2" class="edge">
<title>车间1&#45;&#45;车间1工作中心2</title>
<path fill="none" stroke="black" d="M283.49,-71.7C283.49,-60.85 283.49,-46.92 283.49,-36.1"/>
</g>
<!-- 车间1工作中心3 -->
<g id="node4" class="node">
<title>车间1工作中心3</title>
<ellipse fill="none" stroke="black" cx="478.49" cy="-18" rx="88.49" ry="18"/>
<text text-anchor="middle" x="478.49" y="-12.57" font-family="Times New Roman,serif" font-size="14.00">车间1工作中心3</text>
</g>
<!-- 车间1&#45;&#45;车间1工作中心3 -->
<g id="edge3" class="edge">
<title>车间1&#45;&#45;车间1工作中心3</title>
<path fill="none" stroke="black" d="M313.1,-78.37C345.92,-66.59 399.1,-47.5 436.27,-34.15"/>
</g>
<!-- 车间2 -->
<g id="node5" class="node">
<title>车间2</title>
<ellipse fill="none" stroke="black" cx="673.49" cy="-90" rx="38.09" ry="18"/>
<text text-anchor="middle" x="673.49" y="-84.58" font-family="Times New Roman,serif" font-size="14.00">车间2</text>
</g>
<!-- 车间2工作中心4 -->
<g id="node6" class="node">
<title>车间2工作中心4</title>
<ellipse fill="none" stroke="black" cx="673.49" cy="-18" rx="88.49" ry="18"/>
<text text-anchor="middle" x="673.49" y="-12.57" font-family="Times New Roman,serif" font-size="14.00">车间2工作中心4</text>
</g>
<!-- 车间2&#45;&#45;车间2工作中心4 -->
<g id="edge4" class="edge">
<title>车间2&#45;&#45;车间2工作中心4</title>
<path fill="none" stroke="black" d="M673.49,-71.7C673.49,-60.85 673.49,-46.92 673.49,-36.1"/>
</g>
</g>
</svg>
