<?xml version="1.0" encoding="UTF-8" standalone="no"?>
<!DOCTYPE svg PUBLIC "-//W3C//DTD SVG 1.1//EN"
 "http://www.w3.org/Graphics/SVG/1.1/DTD/svg11.dtd">
<!-- Generated by graphviz version 2.50.0 (0)
 -->
<!-- Title: 车间&#45;工作中心图 Pages: 1 -->
<svg width="758pt" height="116pt"
 viewBox="0.00 0.00 758.18 116.00" xmlns="http://www.w3.org/2000/svg" xmlns:xlink="http://www.w3.org/1999/xlink">
<g id="graph0" class="graph" transform="scale(1 1) rotate(0) translate(4 112)">
<title>车间&#45;工作中心图</title>
<polygon fill="white" stroke="transparent" points="-4,4 -4,-112 754.18,-112 754.18,4 -4,4"/>
<!-- 车间1 -->
<g id="node1" class="node">
<title>车间1</title>
<ellipse fill="none" stroke="black" cx="279.09" cy="-90" rx="37.89" ry="18"/>
<text text-anchor="middle" x="279.09" y="-86.3" font-family="Times New Roman,serif" font-size="14.00">车间1</text>
</g>
<!-- 车间1工作中心1 -->
<g id="node2" class="node">
<title>车间1工作中心1</title>
<ellipse fill="none" stroke="black" cx="87.09" cy="-18" rx="87.18" ry="18"/>
<text text-anchor="middle" x="87.09" y="-14.3" font-family="Times New Roman,serif" font-size="14.00">车间1工作中心1</text>
</g>
<!-- 车间1&#45;&#45;车间1工作中心1 -->
<g id="edge1" class="edge">
<title>车间1&#45;&#45;车间1工作中心1</title>
<path fill="none" stroke="black" d="M249.93,-78.37C217.52,-66.55 164.92,-47.37 128.3,-34.02"/>
</g>
<!-- 车间1工作中心2 -->
<g id="node3" class="node">
<title>车间1工作中心2</title>
<ellipse fill="none" stroke="black" cx="279.09" cy="-18" rx="87.18" ry="18"/>
<text text-anchor="middle" x="279.09" y="-14.3" font-family="Times New Roman,serif" font-size="14.00">车间1工作中心2</text>
</g>
<!-- 车间1&#45;&#45;车间1工作中心2 -->
<g id="edge2" class="edge">
<title>车间1&#45;&#45;车间1工作中心2</title>
<path fill="none" stroke="black" d="M279.09,-71.7C279.09,-60.85 279.09,-46.92 279.09,-36.1"/>
</g>
<!-- 车间1工作中心3 -->
<g id="node4" class="node">
<title>车间1工作中心3</title>
<ellipse fill="none" stroke="black" cx="471.09" cy="-18" rx="87.18" ry="18"/>
<text text-anchor="middle" x="471.09" y="-14.3" font-family="Times New Roman,serif" font-size="14.00">车间1工作中心3</text>
</g>
<!-- 车间1&#45;&#45;车间1工作中心3 -->
<g id="edge3" class="edge">
<title>车间1&#45;&#45;车间1工作中心3</title>
<path fill="none" stroke="black" d="M308.25,-78.37C340.67,-66.55 393.27,-47.37 429.88,-34.02"/>
</g>
<!-- 车间2 -->
<g id="node5" class="node">
<title>车间2</title>
<ellipse fill="none" stroke="black" cx="663.09" cy="-90" rx="37.89" ry="18"/>
<text text-anchor="middle" x="663.09" y="-86.3" font-family="Times New Roman,serif" font-size="14.00">车间2</text>
</g>
<!-- 车间2工作中心4 -->
<g id="node6" class="node">
<title>车间2工作中心4</title>
<ellipse fill="none" stroke="black" cx="663.09" cy="-18" rx="87.18" ry="18"/>
<text text-anchor="middle" x="663.09" y="-14.3" font-family="Times New Roman,serif" font-size="14.00">车间2工作中心4</text>
</g>
<!-- 车间2&#45;&#45;车间2工作中心4 -->
<g id="edge4" class="edge">
<title>车间2&#45;&#45;车间2工作中心4</title>
<path fill="none" stroke="black" d="M663.09,-71.7C663.09,-60.85 663.09,-46.92 663.09,-36.1"/>
</g>
</g>
</svg>
